<svg width="200" height="137" viewBox="0 0 200 137" fill="none" xmlns="http://www.w3.org/2000/svg">
<path d="M7.11175 119.929C6.50604 119.942 5.90185 119.864 5.31876 119.699C4.86508 119.573 4.44444 119.349 4.08628 119.042C3.76415 118.754 3.51573 118.392 3.36187 117.988C3.19537 117.54 3.09916 117.069 3.0767 116.592H2.64729C2.09443 116.592 1.72293 116.771 1.53282 117.13C1.3427 117.49 1.31429 118.077 1.44759 118.891L2.24739 124.062H0.860855L0.0741676 119.019C-0.00729997 118.531 -0.0194391 118.033 0.0381108 117.541C0.0807139 117.138 0.220183 116.751 0.444566 116.414C0.667015 116.097 0.970384 115.845 1.32304 115.685C1.76038 115.496 2.23375 115.407 2.70957 115.422H3.13897C3.20793 114.996 3.34286 114.584 3.53888 114.2C3.73048 113.827 3.98944 113.493 4.30262 113.214C4.63512 112.926 5.01874 112.703 5.43348 112.557C5.91304 112.386 6.41927 112.303 6.92819 112.311C8.03611 112.311 8.86213 112.62 9.40626 113.237C9.95039 113.855 10.2224 114.731 10.2224 115.866V118.783H11.7729V119.939L7.11175 119.929ZM8.8228 116.109C8.8228 115.158 8.64252 114.479 8.28195 114.072C8.09244 113.866 7.85994 113.704 7.60102 113.599C7.3421 113.493 7.06312 113.446 6.78396 113.461C6.46579 113.445 6.14812 113.501 5.85506 113.627C5.562 113.752 5.30125 113.942 5.09258 114.184C4.66513 114.726 4.4485 115.405 4.4829 116.096C4.4829 117.004 4.70143 117.679 5.13847 118.119C5.57552 118.559 6.29447 118.779 7.29531 118.776H8.8228V116.109ZM11.5172 118.773H13.7658V112.475H15.1819V118.77H17.5682V119.926H11.5303L11.5172 118.773ZM13.6249 122.295C13.6309 122.521 13.5472 122.741 13.3921 122.906C13.3167 122.984 13.2265 123.045 13.1268 123.087C13.0272 123.13 12.9201 123.151 12.812 123.151C12.7038 123.151 12.5967 123.13 12.4971 123.087C12.3974 123.045 12.3072 122.984 12.2318 122.906C12.1531 122.825 12.0913 122.73 12.0502 122.625C12.0091 122.52 11.9895 122.408 11.9925 122.295C11.9906 122.185 12.0107 122.075 12.0519 121.973C12.093 121.871 12.1542 121.778 12.2318 121.7C12.3079 121.624 12.3983 121.563 12.4979 121.522C12.5974 121.48 12.7042 121.459 12.812 121.459C12.9198 121.459 13.0265 121.48 13.126 121.522C13.2256 121.563 13.316 121.624 13.3921 121.7C13.4691 121.78 13.5293 121.874 13.5693 121.977C13.6093 122.08 13.6282 122.191 13.6249 122.301M15.903 122.301C15.9099 122.527 15.8274 122.747 15.6735 122.912C15.5978 122.99 15.5073 123.052 15.4074 123.094C15.3075 123.136 15.2002 123.158 15.0917 123.158C14.9833 123.158 14.876 123.136 14.776 123.094C14.6761 123.052 14.5856 122.99 14.5099 122.912C14.4312 122.832 14.3694 122.736 14.3283 122.631C14.2872 122.526 14.2676 122.414 14.2706 122.301C14.2687 122.191 14.2889 122.082 14.33 121.98C14.3711 121.878 14.4323 121.785 14.5099 121.707C14.5861 121.63 14.6767 121.569 14.7766 121.527C14.8764 121.485 14.9835 121.464 15.0917 121.464C15.1999 121.464 15.307 121.485 15.4069 121.527C15.5067 121.569 15.5974 121.63 15.6735 121.707C15.7499 121.787 15.8095 121.881 15.849 121.984C15.8884 122.087 15.9067 122.198 15.903 122.308M17.3518 118.786H19.5054V108.75H20.9509V118.773H22.6456V119.929H17.3649L17.3518 118.786ZM22.3866 118.786H22.9176C23.7034 118.793 24.4877 118.718 25.258 118.563C25.8993 118.434 26.5239 118.232 27.1199 117.962C26.8423 117.697 26.5681 117.429 26.2971 117.16C26.0261 116.891 25.7443 116.631 25.4514 116.381C25.1552 116.132 24.8407 115.904 24.5107 115.701C24.1703 115.492 23.806 115.324 23.4257 115.202L23.5503 114.187C23.8475 113.955 24.1752 113.725 24.5336 113.497C24.8918 113.27 25.2641 113.066 25.6481 112.886C26.0257 112.709 26.417 112.562 26.8183 112.449C27.2011 112.339 27.597 112.283 27.9951 112.281C28.4527 112.271 28.9086 112.341 29.3423 112.488C29.6843 112.606 29.9989 112.793 30.2666 113.037C30.5013 113.255 30.6829 113.523 30.7976 113.822C30.9105 114.116 30.9683 114.427 30.9681 114.742C30.9588 115.338 30.7999 115.922 30.5059 116.44C30.1572 117.059 29.6852 117.599 29.1194 118.027C29.4389 118.255 29.7858 118.442 30.1519 118.582C30.5314 118.724 30.9336 118.794 31.3385 118.789H32.2792V119.946H31.1123C30.5188 119.96 29.929 119.848 29.3816 119.617C28.8844 119.396 28.4165 119.113 27.9885 118.776C27.263 119.158 26.492 119.447 25.694 119.634C24.7381 119.859 23.7587 119.97 22.7767 119.962H22.3932L22.3866 118.786ZM24.8483 114.647C25.1829 114.772 25.501 114.937 25.7956 115.14C26.0888 115.341 26.3691 115.56 26.6347 115.797C26.9013 116.035 27.1625 116.284 27.4182 116.542C27.6738 116.801 27.9306 117.046 28.1885 117.278C28.5947 116.979 28.935 116.598 29.1882 116.161C29.401 115.787 29.5139 115.364 29.516 114.933C29.5258 114.526 29.3791 114.13 29.1063 113.829C28.9327 113.664 28.7259 113.538 28.4997 113.46C28.2735 113.381 28.0333 113.353 27.7951 113.375C27.5182 113.377 27.2431 113.42 26.9789 113.503C26.701 113.592 26.4303 113.702 26.1693 113.832C25.9129 113.956 25.6634 114.095 25.4219 114.246C25.1859 114.395 24.986 114.532 24.8221 114.657M31.9941 118.796H34.2427V112.475H35.7013V118.77H37.2878V119.926H32.0432L31.9941 118.796ZM33.5642 111.04C33.4562 111.041 33.349 111.02 33.2497 110.978C33.1503 110.935 33.0609 110.872 32.9873 110.793C32.9084 110.713 32.8465 110.617 32.8054 110.512C32.7643 110.407 32.7448 110.295 32.748 110.182C32.746 110.072 32.7662 109.963 32.8073 109.86C32.8484 109.758 32.9096 109.665 32.9873 109.587C33.0634 109.51 33.1541 109.449 33.2539 109.408C33.3538 109.366 33.4609 109.344 33.5691 109.344C33.6773 109.344 33.7844 109.366 33.8842 109.408C33.9841 109.449 34.0747 109.51 34.1509 109.587C34.2273 109.667 34.2869 109.762 34.3263 109.865C34.3657 109.968 34.3841 110.078 34.3803 110.189C34.3876 110.415 34.3051 110.635 34.1509 110.8C34.0767 110.88 33.9863 110.944 33.8857 110.986C33.7851 111.029 33.6766 111.049 33.5674 111.046M35.8619 111.046C35.7528 111.049 35.6443 111.029 35.5437 110.986C35.443 110.944 35.3526 110.88 35.2785 110.8C35.1243 110.635 35.0418 110.415 35.049 110.189C35.044 109.968 35.1265 109.754 35.2785 109.594C35.3528 109.514 35.4432 109.45 35.5438 109.408C35.6444 109.365 35.7528 109.345 35.8619 109.348C35.9691 109.346 36.0755 109.366 36.1747 109.406C36.2738 109.447 36.3637 109.508 36.4389 109.584C36.5176 109.663 36.5795 109.757 36.6206 109.86C36.6618 109.963 36.6813 110.074 36.6781 110.185C36.6812 110.298 36.6615 110.41 36.6204 110.515C36.5793 110.62 36.5176 110.716 36.4389 110.796C36.3651 110.875 36.2756 110.938 36.1763 110.981C36.077 111.023 35.9699 111.044 35.8619 111.043M37.0321 118.799H39.189V108.75H40.6181V119.92H37.0453L37.0321 118.799ZM43.5289 108.776H44.9449V119.946H43.5289V108.776ZM49.5929 123.967C49.2957 123.967 49.0029 123.956 48.7145 123.934C48.426 123.912 48.1693 123.886 47.9442 123.855L47.1903 123.727L47.282 122.505C47.529 122.569 47.7912 122.621 48.0687 122.663C48.3047 122.704 48.5691 122.738 48.862 122.765C49.1537 122.791 49.4487 122.804 49.747 122.804C50.1407 122.807 50.5333 122.764 50.9172 122.676C51.2531 122.602 51.57 122.458 51.8481 122.255C52.1218 122.056 52.3406 121.791 52.484 121.483C52.6421 121.119 52.7182 120.724 52.7069 120.327V119.946H51.1532C50.5171 119.96 49.8828 119.872 49.275 119.683C48.8073 119.536 48.3807 119.28 48.0294 118.937C47.7087 118.61 47.4715 118.21 47.3378 117.771C47.1879 117.277 47.1149 116.763 47.1214 116.247C47.1196 115.74 47.2005 115.236 47.3607 114.755C47.5124 114.291 47.7553 113.862 48.0753 113.494C48.4086 113.118 48.822 112.823 49.2848 112.63C49.8288 112.403 50.4135 112.291 51.0024 112.301C51.404 112.3 51.8051 112.329 52.2021 112.39C52.5714 112.449 52.8992 112.515 53.1855 112.587C53.5133 112.672 53.8159 112.762 54.0935 112.856V120.232C54.093 120.696 54.0143 121.157 53.8607 121.595C53.7032 122.045 53.4428 122.453 53.1003 122.784C52.7028 123.16 52.2302 123.447 51.7137 123.625C51.038 123.858 50.3268 123.969 49.6126 123.954M52.7069 113.835C52.543 113.772 52.3682 113.714 52.1825 113.661C51.9903 113.602 51.7943 113.557 51.5957 113.526C51.3452 113.487 51.092 113.469 50.8385 113.471C50.5212 113.454 50.2043 113.509 49.9114 113.633C49.6185 113.756 49.3572 113.945 49.1471 114.184C48.7193 114.722 48.5025 115.398 48.5375 116.086C48.5375 116.995 48.756 117.671 49.193 118.116C49.6301 118.561 50.349 118.78 51.3499 118.773H52.7102L52.7069 113.835ZM63.5239 119.939C62.8878 119.954 62.2535 119.865 61.6457 119.676C61.178 119.529 60.7513 119.274 60.4001 118.931C60.0794 118.603 59.8421 118.203 59.7084 117.764C59.5586 117.271 59.4856 116.756 59.4921 116.24C59.4904 115.733 59.5712 115.229 59.7314 114.749C59.8831 114.284 60.1261 113.856 60.446 113.487C60.7793 113.112 61.1927 112.816 61.6555 112.623C62.1995 112.397 62.7841 112.285 63.3731 112.294C63.7747 112.293 64.1758 112.323 64.5728 112.383C64.9421 112.442 65.2699 112.508 65.5562 112.58C65.8839 112.666 66.1866 112.756 66.4641 112.85V118.763H68.1522V119.92L63.5239 119.939ZM65.0776 113.835C64.9137 113.772 64.7389 113.714 64.5531 113.661C64.3621 113.602 64.1671 113.557 63.9697 113.526C63.7203 113.488 63.4682 113.469 63.2158 113.471C62.8995 113.454 62.5836 113.51 62.2918 113.633C62 113.757 61.7399 113.945 61.5309 114.184C61.1039 114.722 60.8872 115.398 60.9213 116.086C60.9213 116.995 61.1398 117.671 61.5768 118.116C62.0139 118.561 62.7295 118.78 63.7238 118.773H65.0776V113.835ZM62.0914 111.03C61.9835 111.031 61.8763 111.01 61.777 110.968C61.6776 110.925 61.5882 110.862 61.5145 110.783C61.4357 110.703 61.3738 110.607 61.3327 110.502C61.2916 110.397 61.272 110.285 61.2753 110.172C61.2733 110.062 61.2935 109.953 61.3346 109.851C61.3757 109.748 61.4369 109.656 61.5145 109.578C61.5907 109.501 61.6814 109.439 61.7812 109.398C61.8811 109.356 61.9882 109.335 62.0964 109.335C62.2045 109.335 62.3117 109.356 62.4115 109.398C62.5114 109.439 62.602 109.501 62.6782 109.578C62.7546 109.657 62.8142 109.752 62.8536 109.855C62.893 109.958 62.9114 110.068 62.9076 110.179C62.9146 110.405 62.8321 110.624 62.6782 110.79C62.6037 110.871 62.5127 110.934 62.4115 110.977C62.3103 111.019 62.2011 111.04 62.0914 111.036M64.386 111.036C64.2763 111.04 64.1671 111.019 64.0659 110.977C63.9647 110.934 63.8737 110.871 63.7992 110.79C63.6453 110.624 63.5629 110.405 63.5698 110.179C63.5651 109.958 63.6475 109.744 63.7992 109.584C63.8739 109.504 63.9648 109.44 64.066 109.397C64.1672 109.355 64.2763 109.335 64.386 109.338C64.4943 109.334 64.6021 109.354 64.7025 109.394C64.803 109.435 64.8939 109.496 64.9694 109.574C65.0464 109.654 65.1066 109.748 65.1466 109.851C65.1866 109.955 65.2055 110.065 65.2021 110.175C65.2053 110.288 65.1864 110.399 65.1465 110.504C65.1065 110.609 65.0464 110.705 64.9694 110.787C64.8953 110.867 64.8049 110.93 64.7042 110.973C64.6036 111.015 64.4951 111.036 64.386 111.033M67.9588 118.789H70.2075V112.475H71.6235V118.77H74.0098V119.926H67.9326L67.9588 118.789ZM70.0665 122.311C70.0725 122.538 69.9889 122.757 69.8338 122.922C69.7583 123 69.6681 123.062 69.5685 123.104C69.4688 123.146 69.3618 123.168 69.2536 123.168C69.1454 123.168 69.0384 123.146 68.9387 123.104C68.8391 123.062 68.7489 123 68.6734 122.922C68.5947 122.842 68.5329 122.746 68.4918 122.641C68.4507 122.536 68.4311 122.424 68.4341 122.311C68.4322 122.201 68.4524 122.092 68.4935 121.99C68.5346 121.887 68.5958 121.795 68.6734 121.717C68.7495 121.64 68.84 121.579 68.9395 121.538C69.0391 121.497 69.1458 121.475 69.2536 121.475C69.3614 121.475 69.4681 121.497 69.5677 121.538C69.6672 121.579 69.7577 121.64 69.8338 121.717C69.9107 121.796 69.971 121.89 70.0109 121.994C70.0509 122.097 70.0698 122.207 70.0665 122.318M72.3446 122.318C72.3515 122.544 72.2691 122.764 72.1152 122.929C72.0395 123.007 71.949 123.068 71.849 123.111C71.7491 123.153 71.6418 123.175 71.5334 123.175C71.4249 123.175 71.3176 123.153 71.2177 123.111C71.1177 123.068 71.0273 123.007 70.9515 122.929C70.8728 122.848 70.8111 122.753 70.77 122.648C70.7288 122.543 70.7092 122.431 70.7122 122.318C70.7103 122.208 70.7305 122.098 70.7716 121.996C70.8127 121.894 70.8739 121.801 70.9515 121.723C71.0277 121.646 71.1183 121.585 71.2182 121.543C71.3181 121.502 71.4252 121.48 71.5334 121.48C71.6415 121.48 71.7486 121.502 71.8485 121.543C71.9484 121.585 72.039 121.646 72.1152 121.723C72.1915 121.803 72.2512 121.897 72.2906 122.001C72.33 122.104 72.3484 122.214 72.3446 122.324M73.7902 118.803H76.0191V112.475H77.4352V119.929H73.7672L73.7902 118.803ZM75.6913 123.165C75.5808 123.168 75.4709 123.148 75.3687 123.105C75.2665 123.063 75.1743 122.999 75.098 122.919C74.9446 122.753 74.8594 122.535 74.8594 122.308C74.8594 122.081 74.9446 121.863 75.098 121.697C75.1743 121.617 75.2665 121.553 75.3687 121.511C75.4709 121.468 75.5808 121.448 75.6913 121.451C75.8079 121.443 75.9247 121.46 76.0346 121.5C76.1445 121.54 76.2451 121.601 76.3302 121.682C76.4153 121.762 76.4831 121.859 76.5295 121.966C76.5759 122.073 76.5998 122.189 76.5998 122.306C76.5998 122.423 76.5759 122.539 76.5295 122.647C76.4831 122.754 76.4153 122.851 76.3302 122.931C76.2451 123.011 76.1445 123.073 76.0346 123.113C75.9247 123.153 75.8079 123.169 75.6913 123.162M79.4019 124.003C79.121 124.004 78.8405 123.983 78.5627 123.941C78.3066 123.902 78.0528 123.849 77.8023 123.783L77.9563 122.577C78.4535 122.761 78.9801 122.853 79.51 122.847C79.8008 122.851 80.0901 122.806 80.3656 122.712C80.619 122.624 80.8451 122.471 81.0211 122.269C81.2182 122.026 81.3572 121.742 81.4276 121.437C81.5294 121.007 81.5757 120.565 81.5653 120.123V112.475H82.9813V118.77H84.676V119.926H82.9813V120.005C82.9847 120.533 82.9275 121.06 82.8109 121.575C82.7102 122.034 82.5136 122.466 82.234 122.843C81.9451 123.216 81.5659 123.507 81.1326 123.691C80.5856 123.913 79.9983 124.018 79.4084 124M84.4564 118.766H86.705V112.475H88.121V118.77H89.7075V119.926H84.4629L84.4564 118.766ZM86.0265 111.01C85.9185 111.012 85.8113 110.99 85.712 110.948C85.6126 110.906 85.5232 110.843 85.4495 110.764C85.3707 110.683 85.3088 110.587 85.2677 110.482C85.2266 110.377 85.207 110.265 85.2103 110.153C85.2083 110.042 85.2285 109.933 85.2696 109.831C85.3107 109.729 85.3719 109.636 85.4495 109.558C85.5257 109.481 85.6161 109.421 85.7157 109.379C85.8152 109.338 85.9219 109.317 86.0297 109.317C86.1375 109.317 86.2442 109.338 86.3438 109.379C86.4434 109.421 86.5338 109.481 86.6099 109.558C86.6869 109.637 86.7471 109.732 86.7871 109.835C86.8271 109.938 86.8459 110.048 86.8426 110.159C86.8458 110.271 86.8269 110.383 86.7869 110.488C86.747 110.593 86.6869 110.689 86.6099 110.77C86.5354 110.851 86.4445 110.915 86.3432 110.957C86.242 111 86.1329 111.02 86.0232 111.017M88.3177 111.017C88.208 111.02 88.0988 111 87.9976 110.957C87.8964 110.915 87.8055 110.851 87.7309 110.77C87.5771 110.605 87.4946 110.385 87.5015 110.159C87.4968 109.938 87.5793 109.725 87.7309 109.564C87.8056 109.484 87.8966 109.42 87.9977 109.378C88.0989 109.335 88.208 109.315 88.3177 109.318C88.4248 109.316 88.5312 109.336 88.6304 109.377C88.7296 109.418 88.8195 109.478 88.8946 109.555C88.9733 109.633 89.0352 109.727 89.0764 109.83C89.1175 109.934 89.1371 110.045 89.1339 110.156C89.1369 110.269 89.1173 110.381 89.0762 110.486C89.0351 110.591 88.9733 110.686 88.8946 110.767C88.8208 110.846 88.7314 110.909 88.632 110.951C88.5327 110.993 88.4256 111.015 88.3177 111.013M89.4584 118.773H91.6152V108.75H93.0313V118.773H94.7259V119.929H89.4584V118.773ZM94.4932 118.773H96.6697V108.75H98.0857V119.92H94.5129L94.4932 118.773ZM107.605 119.929C106.969 119.944 106.334 119.855 105.726 119.667C105.259 119.519 104.832 119.264 104.481 118.921C104.16 118.593 103.923 118.193 103.789 117.755C103.639 117.261 103.566 116.746 103.573 116.23C103.571 115.723 103.652 115.219 103.812 114.739C103.964 114.275 104.207 113.846 104.527 113.477C104.864 113.1 105.282 112.805 105.749 112.613C106.293 112.387 106.878 112.275 107.467 112.285C107.869 112.283 108.27 112.313 108.667 112.373C109.036 112.432 109.364 112.498 109.65 112.57C109.978 112.656 110.28 112.746 110.558 112.84V118.753H112.266V119.91L107.605 119.929ZM109.158 113.825C108.994 113.762 108.82 113.704 108.634 113.651C108.442 113.592 108.246 113.547 108.047 113.517C107.798 113.478 107.546 113.459 107.293 113.461C106.977 113.444 106.661 113.5 106.369 113.624C106.077 113.747 105.817 113.935 105.608 114.174C105.181 114.712 104.965 115.389 104.999 116.076C104.999 116.985 105.217 117.662 105.654 118.106C106.091 118.551 106.807 118.77 107.801 118.763H109.155L109.158 113.825ZM106.176 111.017C106.068 111.018 105.96 110.997 105.861 110.955C105.762 110.912 105.672 110.849 105.599 110.77C105.52 110.69 105.458 110.594 105.417 110.489C105.376 110.384 105.356 110.272 105.359 110.159C105.357 110.049 105.378 109.94 105.419 109.837C105.46 109.735 105.521 109.642 105.599 109.564C105.675 109.487 105.765 109.426 105.865 109.385C105.965 109.343 106.072 109.321 106.18 109.321C106.289 109.321 106.396 109.343 106.496 109.385C106.595 109.426 106.686 109.487 106.762 109.564C106.839 109.644 106.898 109.739 106.938 109.842C106.977 109.945 106.995 110.055 106.992 110.166C106.999 110.392 106.916 110.612 106.762 110.777C106.688 110.857 106.597 110.921 106.496 110.964C106.394 111.006 106.285 111.026 106.176 111.023M108.47 111.023C108.36 111.026 108.251 111.006 108.15 110.964C108.049 110.921 107.958 110.857 107.883 110.777C107.729 110.612 107.647 110.392 107.654 110.166C107.649 109.945 107.731 109.731 107.883 109.571C107.958 109.491 108.049 109.428 108.15 109.386C108.252 109.344 108.361 109.324 108.47 109.328C108.578 109.325 108.686 109.344 108.787 109.385C108.887 109.425 108.978 109.487 109.053 109.564C109.13 109.644 109.189 109.739 109.229 109.842C109.268 109.945 109.287 110.055 109.283 110.166C109.29 110.392 109.208 110.612 109.053 110.777C108.979 110.857 108.889 110.921 108.788 110.963C108.688 111.006 108.579 111.026 108.47 111.023ZM112.04 118.78H114.288V112.475H115.704V118.77H118.091V119.926H112.036L112.04 118.78ZM114.147 122.301C114.154 122.527 114.072 122.747 113.918 122.912C113.842 122.991 113.752 123.053 113.652 123.095C113.552 123.138 113.445 123.16 113.336 123.16C113.227 123.16 113.12 123.138 113.02 123.095C112.92 123.053 112.83 122.991 112.754 122.912C112.675 122.832 112.614 122.736 112.573 122.631C112.532 122.526 112.512 122.414 112.515 122.301C112.513 122.191 112.533 122.082 112.574 121.98C112.615 121.878 112.677 121.785 112.754 121.707C112.83 121.63 112.921 121.569 113.021 121.527C113.121 121.485 113.228 121.464 113.336 121.464C113.444 121.464 113.551 121.485 113.651 121.527C113.751 121.569 113.842 121.63 113.918 121.707C113.994 121.787 114.054 121.881 114.093 121.984C114.133 122.087 114.151 122.198 114.147 122.308M116.442 122.308C116.449 122.534 116.366 122.754 116.212 122.919C116.137 122.997 116.046 123.059 115.946 123.101C115.846 123.143 115.739 123.165 115.631 123.165C115.522 123.165 115.415 123.143 115.315 123.101C115.215 123.059 115.124 122.997 115.049 122.919C114.97 122.838 114.908 122.743 114.867 122.638C114.826 122.533 114.806 122.421 114.809 122.308C114.807 122.198 114.828 122.088 114.869 121.986C114.91 121.884 114.971 121.791 115.049 121.713C115.125 121.636 115.216 121.575 115.315 121.534C115.415 121.492 115.522 121.47 115.631 121.47C115.739 121.47 115.846 121.492 115.946 121.534C116.046 121.575 116.136 121.636 116.212 121.713C116.289 121.793 116.348 121.887 116.388 121.991C116.427 122.094 116.446 122.204 116.442 122.315M117.887 118.793H120.136V112.475H121.552V118.77H123.26V119.926H117.871L117.887 118.793ZM120.837 110.8C120.727 110.802 120.617 110.782 120.515 110.739C120.413 110.697 120.32 110.634 120.244 110.553C120.165 110.473 120.104 110.377 120.063 110.272C120.021 110.167 120.002 110.055 120.005 109.942C120 109.713 120.086 109.491 120.244 109.325C120.321 109.244 120.413 109.18 120.515 109.136C120.617 109.092 120.726 109.07 120.837 109.07C120.948 109.07 121.058 109.092 121.16 109.136C121.262 109.18 121.354 109.244 121.431 109.325C121.589 109.491 121.675 109.713 121.67 109.942C121.673 110.055 121.653 110.167 121.612 110.272C121.571 110.377 121.509 110.473 121.431 110.553C121.354 110.634 121.262 110.697 121.16 110.739C121.058 110.782 120.948 110.802 120.837 110.8ZM123.024 118.793H125.148V108.75H126.564V113.096C126.564 113.534 126.551 114.005 126.525 114.509C126.498 115.012 126.455 115.488 126.393 115.935C126.56 115.381 126.8 114.853 127.108 114.364C127.379 113.933 127.717 113.547 128.108 113.221C128.465 112.924 128.871 112.69 129.307 112.531C129.728 112.379 130.172 112.301 130.619 112.301C131.047 112.273 131.477 112.343 131.875 112.506C132.272 112.67 132.628 112.922 132.913 113.244C133.444 113.875 133.71 114.76 133.71 115.898C133.713 116.426 133.632 116.95 133.47 117.452C133.315 117.932 133.051 118.369 132.7 118.73C132.307 119.119 131.834 119.416 131.313 119.601C130.638 119.836 129.927 119.947 129.212 119.929H123.011L123.024 118.793ZM129.366 118.793C129.846 118.807 130.324 118.731 130.776 118.569C131.117 118.444 131.423 118.238 131.667 117.968C131.888 117.715 132.046 117.413 132.13 117.088C132.218 116.743 132.262 116.389 132.261 116.033C132.297 115.377 132.136 114.724 131.799 114.161C131.639 113.932 131.423 113.749 131.172 113.63C130.921 113.51 130.644 113.457 130.366 113.477C129.846 113.475 129.339 113.639 128.917 113.944C128.457 114.275 128.062 114.689 127.754 115.166C127.408 115.694 127.137 116.268 126.947 116.871C126.745 117.494 126.61 118.137 126.547 118.789L129.366 118.793ZM137.771 123.964C137.474 123.964 137.181 123.953 136.892 123.931C136.604 123.909 136.347 123.883 136.122 123.852L135.368 123.724L135.46 122.502C135.707 122.565 135.968 122.618 136.243 122.66C136.479 122.701 136.744 122.735 137.037 122.761C137.328 122.788 137.623 122.801 137.922 122.801C138.315 122.803 138.708 122.76 139.092 122.673C139.428 122.598 139.745 122.455 140.023 122.252C140.289 122.051 140.501 121.787 140.639 121.483C140.797 121.119 140.873 120.724 140.862 120.327V119.946H139.282C138.646 119.96 138.012 119.872 137.404 119.683C136.936 119.536 136.509 119.28 136.158 118.937C135.837 118.61 135.6 118.21 135.467 117.771C135.317 117.277 135.244 116.763 135.25 116.247C135.249 115.74 135.329 115.236 135.49 114.755C135.641 114.291 135.884 113.862 136.204 113.494C136.538 113.118 136.951 112.823 137.414 112.63C137.958 112.403 138.542 112.292 139.131 112.301C139.533 112.3 139.934 112.329 140.331 112.39C140.7 112.449 141.028 112.515 141.314 112.587C141.642 112.672 141.945 112.762 142.222 112.856V118.77H143.917V119.926H142.232V120.228C142.233 120.693 142.155 121.154 142.003 121.592C141.849 122.047 141.591 122.46 141.249 122.797C140.851 123.173 140.379 123.46 139.862 123.639C139.186 123.871 138.475 123.982 137.761 123.967M140.855 113.848C140.689 113.785 140.514 113.727 140.331 113.674C140.139 113.615 139.943 113.57 139.744 113.54C139.494 113.501 139.24 113.482 138.987 113.484C138.67 113.467 138.353 113.523 138.06 113.646C137.767 113.77 137.506 113.958 137.296 114.197C136.868 114.735 136.651 115.412 136.686 116.099C136.686 117.008 136.904 117.685 137.341 118.129C137.779 118.574 138.497 118.793 139.498 118.786H140.859L140.855 113.848ZM143.717 118.796H145.874V108.75H147.29V119.92H143.717V118.796ZM150.214 108.773H151.63V119.943H150.214V108.773ZM161.175 119.943C160.539 119.957 159.904 119.868 159.297 119.68C158.829 119.532 158.402 119.277 158.051 118.934C157.73 118.607 157.493 118.207 157.359 117.768C157.21 117.274 157.137 116.76 157.143 116.243C157.141 115.736 157.222 115.233 157.382 114.752C157.534 114.288 157.777 113.859 158.097 113.49C158.43 113.115 158.844 112.82 159.307 112.626C159.851 112.4 160.435 112.288 161.024 112.298C161.426 112.296 161.827 112.326 162.224 112.386C162.593 112.446 162.921 112.511 163.207 112.584C163.535 112.669 163.838 112.759 164.115 112.853V118.766H165.833V119.923L161.175 119.943ZM162.729 113.839C162.565 113.775 162.39 113.717 162.204 113.664C162.013 113.606 161.818 113.561 161.621 113.53C161.371 113.491 161.119 113.472 160.867 113.474C160.55 113.458 160.235 113.513 159.943 113.637C159.651 113.76 159.391 113.948 159.182 114.187C158.756 114.726 158.541 115.402 158.576 116.089C158.576 116.998 158.794 117.675 159.231 118.119C159.668 118.564 160.384 118.783 161.378 118.776H162.732L162.729 113.839ZM159.742 111.033C159.634 111.035 159.527 111.013 159.428 110.971C159.329 110.929 159.239 110.866 159.166 110.787C159.087 110.706 159.025 110.61 158.984 110.505C158.943 110.4 158.923 110.288 158.926 110.175C158.924 110.065 158.945 109.956 158.986 109.854C159.027 109.752 159.088 109.659 159.166 109.581C159.242 109.504 159.332 109.443 159.432 109.401C159.532 109.359 159.639 109.338 159.747 109.338C159.856 109.338 159.963 109.359 160.063 109.401C160.162 109.443 160.253 109.504 160.329 109.581C160.406 109.661 160.465 109.755 160.505 109.858C160.544 109.961 160.562 110.072 160.559 110.182C160.566 110.408 160.483 110.628 160.329 110.793C160.255 110.873 160.165 110.937 160.064 110.979C159.963 111.022 159.855 111.042 159.746 111.04M162.024 111.04C161.915 111.042 161.806 111.022 161.706 110.979C161.605 110.937 161.515 110.873 161.44 110.793C161.286 110.628 161.204 110.408 161.211 110.182C161.206 109.961 161.289 109.748 161.44 109.587C161.515 109.507 161.605 109.444 161.706 109.401C161.806 109.359 161.915 109.338 162.024 109.341C162.133 109.337 162.241 109.357 162.342 109.397C162.443 109.438 162.535 109.499 162.611 109.578C162.687 109.657 162.747 109.752 162.786 109.855C162.825 109.958 162.844 110.068 162.84 110.179C162.847 110.405 162.764 110.624 162.611 110.79C162.536 110.871 162.445 110.934 162.344 110.977C162.243 111.019 162.134 111.04 162.024 111.036M165.597 118.793H170.54C170.541 118.102 170.45 117.413 170.271 116.746C170.119 116.19 169.863 115.668 169.517 115.209C169.175 114.768 168.752 114.396 168.271 114.115C167.716 113.794 167.124 113.544 166.508 113.369V112.285L172.359 108.51V109.985L168.147 112.613C168.716 112.852 169.253 113.161 169.747 113.533C170.221 113.896 170.626 114.341 170.943 114.847C171.289 115.411 171.541 116.026 171.69 116.67C171.872 117.471 171.958 118.29 171.946 119.111V119.92H165.587L165.597 118.793ZM172.88 124.026C172.599 124.027 172.319 124.006 172.041 123.964C171.784 123.925 171.529 123.872 171.277 123.806L171.431 122.6C171.929 122.784 172.455 122.876 172.985 122.87C173.276 122.874 173.565 122.829 173.841 122.735C174.094 122.647 174.32 122.494 174.496 122.292C174.693 122.049 174.832 121.765 174.903 121.46C175.005 121.03 175.051 120.588 175.04 120.146V112.475H176.456V118.77H178.151V119.926H176.456V120.005C176.46 120.533 176.402 121.06 176.286 121.575C176.185 122.034 175.989 122.466 175.709 122.843C175.42 123.216 175.041 123.507 174.608 123.691C174.061 123.913 173.473 124.018 172.883 124M188.122 119.929C187.706 119.932 187.291 119.914 186.877 119.874C186.572 119.847 186.273 119.781 185.985 119.676C185.755 119.592 185.545 119.46 185.369 119.289C185.193 119.107 185.052 118.894 184.953 118.661C184.886 118.839 184.796 119.007 184.684 119.161C184.556 119.334 184.4 119.484 184.222 119.604C184.014 119.749 183.785 119.86 183.543 119.933C183.246 120.017 182.937 120.056 182.629 120.051C182.162 120.071 181.701 119.937 181.317 119.67C180.983 119.43 180.741 119.082 180.632 118.684C180.502 119.058 180.256 119.38 179.931 119.604C179.519 119.848 179.044 119.962 178.567 119.933H177.912V118.776H178.567C178.809 118.782 179.051 118.747 179.282 118.674C179.478 118.608 179.65 118.483 179.774 118.316C179.916 118.115 180.013 117.885 180.059 117.643C180.126 117.301 180.156 116.953 180.15 116.605V113.434H181.567V116.322C181.567 116.734 181.576 117.099 181.596 117.416C181.608 117.69 181.659 117.96 181.75 118.218C181.821 118.421 181.956 118.596 182.134 118.717C182.353 118.844 182.605 118.905 182.858 118.891C183.082 118.895 183.304 118.857 183.514 118.78C183.718 118.699 183.893 118.558 184.015 118.376C184.173 118.137 184.285 117.871 184.343 117.59C184.428 117.179 184.466 116.759 184.458 116.339V112.794H185.828V116.851C185.818 117.193 185.856 117.535 185.942 117.866C186.003 118.096 186.138 118.299 186.326 118.445C186.532 118.587 186.769 118.678 187.018 118.707C187.367 118.754 187.72 118.775 188.073 118.77H188.581C188.601 118.601 188.618 118.418 188.634 118.221C188.649 118.024 188.662 117.828 188.673 117.633C188.673 117.438 188.681 117.248 188.696 117.061C188.711 116.875 188.711 116.709 188.696 116.562C188.703 115.088 188.532 113.619 188.188 112.186L189.558 111.933C189.736 112.608 189.87 113.294 189.958 113.986C190.063 114.799 190.115 115.618 190.112 116.437C190.112 116.796 190.102 117.177 190.082 117.58C190.063 117.983 190.037 118.38 190.004 118.77H191.728V119.926L188.122 119.929ZM183.95 111.017C183.84 111.019 183.732 110.999 183.631 110.956C183.531 110.914 183.44 110.85 183.366 110.77C183.212 110.605 183.13 110.385 183.137 110.159C183.132 109.938 183.214 109.725 183.366 109.564C183.44 109.484 183.531 109.421 183.631 109.378C183.732 109.336 183.84 109.315 183.95 109.318C184.057 109.316 184.163 109.336 184.262 109.377C184.361 109.418 184.451 109.478 184.526 109.555C184.605 109.633 184.667 109.727 184.708 109.83C184.749 109.934 184.769 110.045 184.766 110.156C184.769 110.269 184.749 110.381 184.708 110.486C184.667 110.591 184.605 110.686 184.526 110.767C184.453 110.846 184.363 110.909 184.264 110.951C184.165 110.993 184.057 111.015 183.95 111.013M185.074 109.124C184.972 109.126 184.87 109.107 184.776 109.067C184.682 109.028 184.597 108.969 184.526 108.894C184.453 108.818 184.395 108.727 184.356 108.628C184.318 108.528 184.3 108.422 184.304 108.316C184.297 108.098 184.378 107.887 184.526 107.728C184.596 107.652 184.68 107.591 184.775 107.55C184.869 107.51 184.971 107.489 185.074 107.491C185.179 107.489 185.283 107.509 185.379 107.549C185.476 107.59 185.563 107.651 185.634 107.728C185.783 107.887 185.863 108.098 185.857 108.316C185.861 108.529 185.781 108.734 185.634 108.888C185.563 108.965 185.476 109.026 185.38 109.067C185.283 109.107 185.179 109.127 185.074 109.124ZM186.228 111.013C186.117 111.016 186.007 110.995 185.905 110.953C185.803 110.91 185.711 110.847 185.634 110.767C185.556 110.686 185.494 110.591 185.453 110.486C185.412 110.381 185.392 110.269 185.395 110.156C185.393 110.046 185.413 109.936 185.454 109.834C185.496 109.732 185.557 109.639 185.634 109.561C185.711 109.481 185.803 109.418 185.905 109.375C186.007 109.333 186.117 109.312 186.228 109.315C186.334 109.312 186.439 109.332 186.538 109.373C186.636 109.413 186.725 109.474 186.798 109.551C186.874 109.631 186.934 109.725 186.973 109.829C187.013 109.932 187.031 110.042 187.027 110.153C187.035 110.379 186.952 110.598 186.798 110.764C186.726 110.843 186.638 110.906 186.539 110.949C186.441 110.991 186.335 111.012 186.228 111.01M191.492 118.766H193.649V108.75H195.065V119.92H191.492V118.766ZM197.989 108.743H199.405V119.913H197.989V108.743Z" fill="#0B0F16"/>
<path d="M3.51897 136.102L1.63092 132.653C1.51729 132.434 1.41458 132.221 1.3228 132.015C1.23352 131.823 1.15473 131.625 1.08679 131.424C1.08679 131.56 1.09444 131.749 1.10974 131.992C1.12503 132.235 1.13268 132.498 1.13268 132.781C1.13268 133.063 1.13268 133.349 1.13268 133.638C1.13268 133.927 1.13268 134.187 1.13268 134.417V136.122H0.0214844V129.817H1.57519L3.42063 133.198C3.5299 133.397 3.63916 133.605 3.74842 133.822C3.85768 134.039 3.94946 134.25 4.02376 134.456C4.01284 134.301 4.00409 134.095 3.99754 133.839C3.99098 133.582 3.98443 133.309 3.97787 133.017C3.97787 132.728 3.97787 132.441 3.97787 132.156C3.97787 131.872 3.97787 131.62 3.97787 131.401V129.817H5.10874V136.102H3.51897Z" fill="#0B0F16"/>
<path d="M10.052 136.102L9.63566 134.818H7.32477L6.89864 136.102H5.71533L7.81972 129.817H9.20298L11.3533 136.102H10.052ZM8.71458 131.976C8.66541 131.821 8.61952 131.674 8.58019 131.536C8.54085 131.398 8.50152 131.256 8.47202 131.112C8.43596 131.256 8.39991 131.394 8.36385 131.536C8.32779 131.677 8.28518 131.821 8.23601 131.976L7.61322 133.848H9.34721L8.71458 131.976Z" fill="#0B0F16"/>
<path d="M13.6053 130.852V136.102H12.4286V130.852H10.8486V129.817H15.1853V130.852H13.6053Z" fill="#0B0F16"/>
<path d="M17.129 129.817H15.9556V136.102H17.129V129.817Z" fill="#0B0F16"/>
<path d="M23.819 132.863C23.8263 133.341 23.7463 133.817 23.583 134.266C23.4361 134.657 23.2133 135.014 22.9274 135.317C22.6605 135.601 22.3365 135.825 21.9768 135.974C21.6105 136.128 21.217 136.207 20.8198 136.204C20.4028 136.212 19.9884 136.138 19.6004 135.984C19.2643 135.849 18.9662 135.633 18.7318 135.357C18.4941 135.067 18.3188 134.732 18.2171 134.371C18.0973 133.944 18.0399 133.501 18.0467 133.057C18.045 132.583 18.1294 132.112 18.2958 131.667C18.4427 131.277 18.6655 130.92 18.9514 130.616C19.2184 130.332 19.5424 130.108 19.902 129.959C20.2683 129.805 20.6618 129.727 21.059 129.729C21.475 129.721 21.8884 129.796 22.2751 129.949C22.6104 130.086 22.9082 130.301 23.1438 130.577C23.3845 130.865 23.5621 131.201 23.6649 131.562C23.7848 131.99 23.8422 132.432 23.8354 132.876M22.58 133.014C22.5831 132.709 22.5501 132.405 22.4816 132.108C22.4254 131.861 22.3242 131.627 22.1834 131.418C22.0538 131.231 21.8805 131.079 21.6786 130.974C21.4564 130.865 21.2113 130.811 20.964 130.817C20.7379 130.812 20.5138 130.86 20.3084 130.955C20.1082 131.042 19.9301 131.173 19.7872 131.339C19.6379 131.535 19.5267 131.758 19.4594 131.996C19.3705 132.288 19.3273 132.591 19.3316 132.896C19.3036 133.457 19.4416 134.014 19.7282 134.496C19.8606 134.696 20.0433 134.858 20.2579 134.966C20.4725 135.073 20.7115 135.122 20.9509 135.107C21.177 135.111 21.4011 135.064 21.6064 134.969C21.8067 134.874 21.9828 134.735 22.1211 134.562C22.2704 134.365 22.3816 134.142 22.4489 133.905C22.5383 133.612 22.5814 133.307 22.5767 133.001" fill="#0B0F16"/>
<path d="M28.2475 136.102L26.3562 132.653C26.2425 132.434 26.1398 132.221 26.048 132.015C25.9589 131.822 25.8801 131.625 25.812 131.424C25.812 131.562 25.812 131.752 25.835 131.992C25.8579 132.232 25.8514 132.498 25.8579 132.781C25.8645 133.063 25.8579 133.349 25.8579 133.638C25.8579 133.927 25.8579 134.187 25.8579 134.417V136.122H24.7271V129.817H26.2808L28.1623 133.198C28.2715 133.397 28.3808 133.605 28.49 133.822C28.5993 134.039 28.6911 134.25 28.7654 134.456C28.7545 134.301 28.7457 134.095 28.7392 133.839C28.7326 133.582 28.7261 133.309 28.7195 133.017C28.7195 132.728 28.7195 132.441 28.7195 132.156C28.7195 131.872 28.7195 131.62 28.7195 131.401V129.817H29.8012V136.102H28.2475Z" fill="#0B0F16"/>
<path d="M34.7801 136.102L34.3638 134.818H32.0496L31.6235 136.102H30.4565L32.5642 129.817H33.9475L36.0978 136.102H34.7801ZM33.4427 131.976L33.3083 131.536C33.2657 131.394 33.2296 131.256 33.2001 131.112L33.0788 131.536C33.0428 131.677 33.0002 131.821 32.951 131.976L32.3282 133.848H34.0622L33.4427 131.976Z" fill="#0B0F16"/>
<path d="M36.7241 136.102V129.817H37.8976V135.041H39.8774V136.102H36.7241Z" fill="#0B0F16"/>
<path d="M45.9414 136.099C45.6638 136.153 45.3817 136.179 45.099 136.178C44.6391 136.192 44.1816 136.106 43.7583 135.925C43.4214 135.778 43.1238 135.553 42.8897 135.268C42.6665 134.981 42.5067 134.65 42.421 134.296C42.3264 133.927 42.279 133.547 42.28 133.166C42.2753 132.702 42.3394 132.24 42.4701 131.796C42.585 131.402 42.7791 131.037 43.0405 130.721C43.3001 130.418 43.6267 130.18 43.9944 130.025C44.4192 129.85 44.8757 129.765 45.335 129.775C45.5543 129.776 45.7733 129.791 45.9906 129.821C46.2061 129.851 46.4188 129.898 46.6265 129.963L46.4626 131.08C46.0827 130.93 45.6777 130.854 45.2694 130.856C45.0094 130.85 44.7514 130.904 44.5155 131.014C44.3059 131.116 44.1229 131.265 43.9812 131.451C43.8303 131.646 43.719 131.869 43.6534 132.108C43.5818 132.385 43.5466 132.67 43.5486 132.955C43.5129 133.513 43.6628 134.066 43.9747 134.529C44.1415 134.721 44.3515 134.872 44.5874 134.967C44.8233 135.062 45.0784 135.1 45.3317 135.078C45.5335 135.076 45.7346 135.053 45.9316 135.009C46.1247 134.969 46.312 134.905 46.4888 134.818L46.6691 135.889C46.4254 135.981 46.1742 136.051 45.9185 136.099" fill="#0B0F16"/>
<path d="M52.8837 132.863C52.891 133.341 52.811 133.816 52.6477 134.266C52.5009 134.656 52.278 135.013 51.9921 135.317C51.7252 135.601 51.4012 135.825 51.0415 135.974C50.6752 136.128 50.2817 136.206 49.8845 136.204C49.4675 136.212 49.0531 136.137 48.6651 135.984C48.329 135.848 48.0309 135.633 47.7964 135.356C47.5588 135.067 47.3835 134.731 47.2818 134.371C47.162 133.943 47.1046 133.501 47.1114 133.057C47.1037 132.578 47.1837 132.103 47.3474 131.654C47.494 131.263 47.7168 130.906 48.003 130.602C48.2699 130.319 48.5939 130.095 48.9535 129.945C49.3199 129.791 49.7134 129.713 50.1106 129.715C50.5266 129.707 50.9399 129.782 51.3267 129.936C51.662 130.072 51.9598 130.288 52.1954 130.563C52.4361 130.851 52.6137 131.187 52.7165 131.549C52.8363 131.976 52.8938 132.419 52.887 132.863M51.6316 133.001C51.6347 132.696 51.6017 132.391 51.5332 132.094C51.4769 131.848 51.3758 131.614 51.2349 131.404C51.1054 131.217 50.932 131.065 50.7301 130.961C50.508 130.852 50.2629 130.797 50.0156 130.803C49.7895 130.799 49.5654 130.846 49.36 130.941C49.1599 131.036 48.9839 131.175 48.8454 131.348C48.696 131.545 48.5848 131.768 48.5176 132.005C48.4286 132.297 48.3855 132.601 48.3897 132.905C48.3617 133.466 48.4997 134.023 48.7864 134.505C48.9204 134.702 49.1034 134.861 49.3173 134.965C49.5311 135.069 49.7684 135.116 50.0057 135.1C50.2318 135.104 50.4559 135.057 50.6613 134.962C50.8616 134.867 51.0376 134.728 51.1759 134.555C51.3253 134.358 51.4365 134.135 51.5037 133.898C51.5931 133.605 51.6363 133.3 51.6316 132.994" fill="#0B0F16"/>
<path d="M59.5708 136.102L59.1283 133.067C59.0868 132.782 59.0507 132.503 59.0201 132.229L58.9382 131.493H58.9218L58.7776 132.15C58.7229 132.398 58.6563 132.652 58.5776 132.912L57.5942 136.086H56.4568L55.5161 133.129C55.4309 132.855 55.3555 132.576 55.2899 132.291C55.2243 132.007 55.1675 131.734 55.1195 131.473H55.0998C55.0758 131.751 55.0506 132.031 55.0244 132.311C54.9982 132.591 54.9698 132.871 54.9392 133.149L54.5852 136.083H53.4019L54.3328 129.798H55.6964L56.7256 133.047C56.7737 133.213 56.8294 133.422 56.8928 133.671C56.9562 133.921 57.0119 134.154 57.06 134.371H57.0763C57.131 134.134 57.1867 133.903 57.2435 133.678C57.2992 133.451 57.355 133.247 57.4107 133.067L58.4498 129.798H59.8232L60.7705 136.083L59.5708 136.102Z" fill="#0B0F16"/>
<path d="M65.7267 131.72C65.7294 132.022 65.676 132.321 65.5693 132.604C65.4676 132.87 65.3087 133.112 65.1039 133.31C64.885 133.517 64.6262 133.677 64.3434 133.78C64.0103 133.9 63.6582 133.958 63.3043 133.951H63.1404H63.006C62.9646 133.954 62.9229 133.954 62.8815 133.951V136.119H61.7047V129.818L62.2292 129.798H62.7766H63.4125C64.0274 129.756 64.6373 129.934 65.1334 130.301C65.3343 130.479 65.4921 130.701 65.5949 130.95C65.6976 131.199 65.7427 131.468 65.7267 131.736M64.5073 131.858C64.5168 131.715 64.4973 131.571 64.45 131.436C64.4027 131.3 64.3285 131.176 64.2319 131.069C63.9803 130.863 63.6577 130.764 63.3338 130.794H62.8815V132.906C62.9287 132.919 62.9769 132.928 63.0257 132.932H63.1896H63.3797C63.5307 132.953 63.6844 132.938 63.829 132.89C63.9737 132.842 64.1055 132.762 64.2145 132.655C64.3235 132.548 64.4069 132.418 64.4582 132.274C64.5094 132.131 64.5274 131.977 64.5106 131.825" fill="#0B0F16"/>
<path d="M69.6929 136.102L69.2766 134.818H66.9625L66.5363 136.102H65.353L67.4607 129.817H68.844L70.9942 136.102H69.6929ZM68.3556 131.976L68.2212 131.536C68.1786 131.394 68.1425 131.256 68.113 131.112L68.0048 131.536C67.9688 131.677 67.9262 131.821 67.877 131.976L67.2542 133.848H68.9882L68.3556 131.976Z" fill="#0B0F16"/>
<path d="M75.134 136.102L73.2459 132.653C73.1323 132.434 73.0296 132.221 72.9378 132.015C72.8484 131.823 72.7696 131.625 72.7018 131.424C72.7018 131.56 72.7095 131.749 72.7248 131.992C72.7401 132.235 72.7477 132.498 72.7477 132.781C72.7477 133.063 72.7477 133.349 72.7477 133.638C72.7477 133.927 72.7477 134.187 72.7477 134.417V136.122H71.6201V129.817H73.1738L75.0357 133.198C75.1449 133.397 75.2542 133.605 75.3634 133.822C75.4727 134.039 75.5645 134.25 75.6388 134.456C75.6279 134.301 75.6191 134.095 75.6126 133.839C75.606 133.582 75.6005 133.309 75.5962 133.017C75.5962 132.728 75.5962 132.441 75.5962 132.156C75.5962 131.872 75.5962 131.62 75.5962 131.401V129.817H76.6746V136.102H75.134Z" fill="#0B0F16"/>
<path d="M80.3853 133.879V136.103H79.2085V133.888L77.3008 129.821H78.5824L79.3855 131.628C79.4707 131.812 79.5461 131.993 79.6117 132.167L79.8018 132.67H79.8215C79.887 132.49 79.9624 132.301 80.0476 132.101C80.1329 131.902 80.2203 131.704 80.3099 131.507L81.0802 129.821H82.3258L80.3853 133.879Z" fill="#0B0F16"/>
<path d="M86.125 130.852V132.462H88.095V133.457H86.125V136.102H84.9482V129.817H88.213V130.852H86.125Z" fill="#0B0F16"/>
<path d="M94.5556 132.863C94.5629 133.341 94.4829 133.816 94.3196 134.266C94.1727 134.656 93.9498 135.013 93.664 135.317C93.397 135.601 93.073 135.825 92.7134 135.974C92.3471 136.128 91.9535 136.206 91.5563 136.204C91.1394 136.212 90.725 136.137 90.337 135.984C90.0009 135.848 89.7028 135.633 89.4683 135.356C89.2306 135.067 89.0554 134.731 88.9537 134.371C88.8339 133.943 88.7765 133.501 88.7833 133.057C88.7757 132.578 88.8557 132.103 89.0193 131.654C89.1662 131.263 89.389 130.906 89.6748 130.602C89.9419 130.319 90.2658 130.095 90.6254 129.945C90.9917 129.791 91.3853 129.713 91.7825 129.715C92.1984 129.707 92.6118 129.782 92.9986 129.936C93.3339 130.072 93.6317 130.288 93.8672 130.563C94.108 130.851 94.2856 131.187 94.3884 131.549C94.5082 131.976 94.5656 132.419 94.5589 132.863M93.3034 133.001C93.3066 132.696 93.2736 132.391 93.2051 132.094C93.1488 131.848 93.0477 131.614 92.9068 131.404C92.7772 131.217 92.6039 131.065 92.402 130.961C92.1798 130.852 91.9348 130.797 91.6874 130.803C91.4613 130.799 91.2372 130.846 91.0319 130.941C90.8318 131.036 90.6558 131.175 90.5172 131.348C90.3679 131.545 90.2567 131.768 90.1895 132.005C90.1005 132.297 90.0574 132.601 90.0616 132.905C90.0336 133.466 90.1716 134.023 90.4582 134.505C90.5923 134.702 90.7753 134.861 90.9892 134.965C91.203 135.069 91.4403 135.116 91.6776 135.1C91.9037 135.104 92.1278 135.057 92.3332 134.962C92.5335 134.867 92.7095 134.728 92.8478 134.555C92.9972 134.358 93.1084 134.135 93.1756 133.898C93.265 133.605 93.3082 133.3 93.3034 132.994" fill="#0B0F16"/>
<path d="M98.407 136.103L96.768 133.504H96.6697V136.103H95.4962V129.818C95.7366 129.805 95.9999 129.795 96.2862 129.788H97.2499C97.5564 129.785 97.8622 129.818 98.1611 129.887C98.4106 129.943 98.6466 130.048 98.856 130.196C99.0497 130.336 99.2043 130.524 99.3051 130.741C99.4164 130.999 99.4701 131.278 99.4624 131.559C99.4661 131.783 99.4272 132.006 99.3477 132.216C99.2719 132.409 99.1607 132.586 99.0199 132.738C98.8839 132.892 98.7218 133.02 98.5413 133.116C98.356 133.216 98.1556 133.285 97.9481 133.32L98.2005 133.668C98.2857 133.783 98.3611 133.895 98.4332 133.997L99.8525 136.109L98.407 136.103ZM98.2267 131.667C98.2267 131.065 97.8585 130.764 97.122 130.764H96.8729C96.8014 130.766 96.7301 130.773 96.6599 130.787V132.604H96.8369H97.086C97.3862 132.621 97.6828 132.53 97.9218 132.347C98.0228 132.261 98.1028 132.153 98.1556 132.031C98.2085 131.91 98.2328 131.777 98.2267 131.644" fill="#0B0F16"/>
<path d="M102.583 136.102V129.817H103.756V135.041H105.736V136.102H102.583Z" fill="#0B0F16"/>
<path d="M106.458 136.102V129.817H109.775V130.833H107.634V132.38H109.667V133.365H107.634V135.061H109.775V136.102H106.458Z" fill="#0B0F16"/>
<path d="M114.583 136.102L114.167 134.818H111.853L111.42 136.102H110.237L112.344 129.817H113.728L115.878 136.102H114.583ZM113.246 131.976L113.112 131.536C113.069 131.394 113.033 131.256 113.003 131.112L112.895 131.536C112.859 131.677 112.816 131.821 112.771 131.976L112.148 133.848H113.885L113.246 131.976Z" fill="#0B0F16"/>
<path d="M119.448 136.103L117.809 133.504H117.71V136.103H116.537V129.818C116.777 129.805 117.041 129.795 117.327 129.788H118.291C118.598 129.785 118.905 129.818 119.205 129.887C119.455 129.944 119.691 130.048 119.9 130.196C120.094 130.336 120.248 130.524 120.349 130.741C120.461 130.999 120.514 131.278 120.506 131.559C120.51 131.783 120.471 132.006 120.392 132.216C120.316 132.409 120.204 132.586 120.064 132.738C119.928 132.892 119.766 133.02 119.585 133.116C119.401 133.216 119.202 133.285 118.995 133.32L119.248 133.668C119.333 133.783 119.412 133.895 119.48 133.997L120.9 136.109L119.448 136.103ZM119.264 131.667C119.264 131.065 118.897 130.764 118.163 130.764H117.914C117.842 130.766 117.771 130.774 117.701 130.787V132.604H117.878H118.127C118.427 132.621 118.723 132.531 118.962 132.348C119.063 132.261 119.142 132.153 119.194 132.031C119.247 131.909 119.271 131.777 119.264 131.644" fill="#0B0F16"/>
<path d="M125.148 136.102L123.26 132.653C123.146 132.434 123.044 132.221 122.952 132.015C122.863 131.823 122.784 131.625 122.716 131.424C122.716 131.56 122.723 131.749 122.739 131.992C122.754 132.235 122.762 132.498 122.762 132.781C122.762 133.063 122.762 133.349 122.762 133.638C122.762 133.927 122.762 134.187 122.762 134.417V136.122H121.631V129.817H123.221L125.066 133.198C125.174 133.395 125.279 133.605 125.377 133.822C125.476 134.039 125.568 134.249 125.653 134.456C125.653 134.302 125.63 134.095 125.627 133.839C125.623 133.582 125.627 133.306 125.61 133.017C125.594 132.728 125.61 132.442 125.61 132.156C125.61 131.871 125.61 131.621 125.61 131.401V129.817H126.741V136.102H125.148Z" fill="#0B0F16"/>
<path d="M129.314 129.817H128.141V136.102H129.314V129.817Z" fill="#0B0F16"/>
<path d="M134.251 136.102L132.363 132.653C132.249 132.434 132.146 132.221 132.055 132.015C131.965 131.823 131.886 131.625 131.819 131.424C131.819 131.56 131.826 131.749 131.841 131.992C131.841 132.235 131.858 132.498 131.864 132.781C131.871 133.063 131.864 133.349 131.864 133.638C131.864 133.927 131.864 134.187 131.864 134.417V136.122H130.76V129.817H132.313L134.159 133.198C134.266 133.397 134.375 133.605 134.487 133.822C134.598 134.039 134.69 134.25 134.762 134.456C134.751 134.301 134.742 134.095 134.736 133.839C134.736 133.582 134.736 133.306 134.719 133.017C134.703 132.728 134.719 132.442 134.719 132.156C134.719 131.871 134.719 131.621 134.719 131.401V129.817H135.85V136.102H134.251Z" fill="#0B0F16"/>
<path d="M140.921 136.092C140.562 136.16 140.198 136.195 139.833 136.194C139.381 136.202 138.932 136.13 138.505 135.981C138.136 135.853 137.8 135.645 137.522 135.369C137.258 135.097 137.057 134.77 136.935 134.41C136.797 134.004 136.73 133.577 136.735 133.149C136.73 132.674 136.806 132.202 136.958 131.752C137.097 131.348 137.321 130.979 137.614 130.668C137.909 130.36 138.27 130.122 138.669 129.972C139.138 129.799 139.635 129.716 140.134 129.725C140.442 129.725 140.749 129.75 141.052 129.801C141.326 129.846 141.597 129.911 141.862 129.995L141.626 131.105C141.13 130.901 140.598 130.799 140.062 130.806C139.743 130.799 139.426 130.858 139.131 130.98C138.885 131.085 138.668 131.247 138.499 131.453C138.332 131.66 138.208 131.898 138.135 132.153C138.055 132.426 138.016 132.71 138.017 132.994C137.982 133.558 138.158 134.115 138.512 134.555C138.699 134.747 138.925 134.896 139.175 134.991C139.426 135.086 139.694 135.126 139.961 135.107C140.224 135.11 140.486 135.072 140.737 134.995V132.807H141.911V135.806C141.593 135.934 141.264 136.031 140.928 136.096" fill="#0B0F16"/>
<path d="M150.571 136.319L150.243 136.086L149.915 135.843L149.588 135.606C149.486 135.527 149.394 135.455 149.319 135.386C149.009 135.634 148.663 135.832 148.293 135.974C147.874 136.133 147.429 136.212 146.982 136.207C146.669 136.215 146.358 136.165 146.064 136.059C145.825 135.972 145.608 135.835 145.425 135.659C145.258 135.493 145.13 135.292 145.051 135.07C144.97 134.844 144.929 134.605 144.93 134.364C144.925 133.984 145.039 133.611 145.258 133.3C145.494 132.973 145.774 132.68 146.09 132.429C145.953 132.263 145.836 132.108 145.739 131.966C145.65 131.835 145.57 131.698 145.5 131.555C145.44 131.432 145.395 131.302 145.366 131.168C145.339 131.038 145.326 130.906 145.326 130.773C145.326 130.571 145.366 130.371 145.444 130.185C145.518 130 145.629 129.834 145.772 129.696C145.937 129.55 146.128 129.438 146.336 129.367C146.584 129.28 146.846 129.237 147.11 129.242C147.542 129.212 147.969 129.347 148.306 129.62C148.442 129.745 148.549 129.898 148.62 130.068C148.691 130.238 148.725 130.421 148.719 130.606C148.72 130.931 148.63 131.249 148.46 131.526C148.241 131.863 147.965 132.158 147.644 132.4C147.862 132.619 148.117 132.864 148.408 133.135C148.698 133.407 148.989 133.659 149.28 133.891C149.466 133.593 149.606 133.269 149.696 132.928C149.793 132.572 149.836 132.203 149.824 131.834H150.971C150.984 132.319 150.918 132.803 150.778 133.267C150.64 133.721 150.428 134.149 150.148 134.532C150.347 134.687 150.554 134.844 150.768 135.001C150.982 135.159 151.17 135.294 151.332 135.406L150.571 136.319ZM148.483 134.735C148.326 134.604 148.155 134.469 148.008 134.331C147.86 134.193 147.68 134.049 147.542 133.907L147.113 133.497C146.979 133.365 146.857 133.244 146.756 133.132C146.567 133.29 146.406 133.478 146.277 133.687C146.184 133.847 146.134 134.028 146.133 134.213C146.133 134.34 146.157 134.466 146.205 134.584C146.252 134.701 146.322 134.808 146.411 134.896C146.505 134.989 146.617 135.061 146.739 135.11C146.879 135.165 147.028 135.191 147.178 135.189C147.429 135.193 147.677 135.147 147.909 135.054C148.113 134.97 148.305 134.86 148.48 134.726M147.578 130.681C147.583 130.537 147.535 130.396 147.444 130.284C147.39 130.226 147.323 130.181 147.25 130.153C147.176 130.124 147.097 130.113 147.018 130.12C146.942 130.117 146.866 130.13 146.796 130.158C146.725 130.187 146.661 130.229 146.608 130.284C146.556 130.339 146.515 130.404 146.488 130.475C146.461 130.546 146.448 130.622 146.451 130.698C146.456 130.85 146.494 130.999 146.562 131.135C146.672 131.346 146.807 131.542 146.965 131.72C147.138 131.574 147.29 131.406 147.418 131.22C147.526 131.059 147.583 130.869 147.582 130.675" fill="#0B0F16"/>
<path d="M154.314 136.102V129.817H157.632V130.833H155.488V132.38H157.52V133.365H155.488V135.061H157.632V136.102H154.314Z" fill="#0B0F16"/>
<path d="M163.866 132.853C163.876 133.34 163.794 133.823 163.623 134.279C163.473 134.67 163.237 135.021 162.932 135.307C162.624 135.589 162.26 135.802 161.863 135.932C161.424 136.076 160.965 136.147 160.503 136.142C160.184 136.142 159.886 136.142 159.608 136.142L158.805 136.109V129.828C159.045 129.814 159.339 129.803 159.687 129.795C160.034 129.786 160.397 129.786 160.775 129.795C161.207 129.789 161.637 129.846 162.053 129.962C162.421 130.061 162.759 130.249 163.037 130.51C163.315 130.77 163.524 131.096 163.646 131.457C163.802 131.91 163.875 132.387 163.863 132.866M162.597 132.958C162.601 132.654 162.566 132.35 162.493 132.055C162.433 131.807 162.321 131.575 162.165 131.375C162.009 131.185 161.807 131.039 161.578 130.951C161.295 130.848 160.994 130.798 160.693 130.807H160.303C160.182 130.807 160.073 130.807 159.975 130.83V135.064L160.267 135.097C160.378 135.097 160.494 135.097 160.614 135.097C160.885 135.101 161.154 135.058 161.411 134.972C161.646 134.892 161.859 134.758 162.034 134.581C162.219 134.389 162.36 134.158 162.447 133.905C162.553 133.593 162.604 133.265 162.597 132.935" fill="#0B0F16"/>
<path d="M169.052 135.583C168.534 136.026 167.863 136.25 167.183 136.207C166.782 136.221 166.381 136.157 166.003 136.02C165.734 135.922 165.494 135.757 165.305 135.541C165.115 135.325 164.984 135.065 164.922 134.785C164.855 134.503 164.822 134.214 164.823 133.924V129.817H165.997V133.848C165.996 134.032 166.014 134.215 166.052 134.394C166.085 134.55 166.153 134.696 166.252 134.821C166.355 134.946 166.488 135.043 166.639 135.1C166.839 135.172 167.05 135.205 167.262 135.199C167.44 135.216 167.619 135.196 167.789 135.139C167.958 135.082 168.114 134.991 168.245 134.87C168.48 134.543 168.588 134.141 168.55 133.74V129.817H169.717V133.661C169.717 134.524 169.499 135.164 169.062 135.58" fill="#0B0F16"/>
<path d="M174.355 136.099C174.079 136.153 173.798 136.179 173.516 136.178C173.056 136.192 172.599 136.106 172.175 135.925C171.839 135.777 171.541 135.552 171.307 135.268C171.085 134.984 170.925 134.656 170.838 134.306C170.743 133.936 170.696 133.557 170.697 133.176C170.692 132.712 170.756 132.25 170.887 131.806C171.001 131.413 171.194 131.047 171.454 130.731C171.707 130.427 172.027 130.185 172.388 130.025C172.813 129.85 173.27 129.765 173.729 129.775C173.948 129.776 174.167 129.791 174.385 129.821C174.6 129.851 174.813 129.898 175.021 129.963L174.857 131.08C174.477 130.93 174.072 130.854 173.664 130.856C173.403 130.85 173.146 130.904 172.91 131.014C172.706 131.113 172.528 131.258 172.388 131.438C172.238 131.633 172.126 131.856 172.061 132.095C171.989 132.371 171.954 132.656 171.956 132.942C171.92 133.5 172.07 134.053 172.382 134.516C172.549 134.709 172.758 134.859 172.994 134.954C173.23 135.049 173.486 135.087 173.739 135.065C173.941 135.063 174.142 135.039 174.339 134.996C174.532 134.956 174.719 134.892 174.896 134.805L175.076 135.876C174.833 135.968 174.581 136.038 174.326 136.086" fill="#0B0F16"/>
<path d="M179.728 136.102L179.311 134.818H176.997L176.574 136.102H175.391L177.499 129.817H178.882L181.032 136.102H179.728ZM178.39 131.976L178.256 131.536C178.213 131.394 178.177 131.256 178.148 131.112L178.04 131.536C178.004 131.677 177.961 131.821 177.915 131.976L177.292 133.848H179.03L178.39 131.976Z" fill="#0B0F16"/>
<path d="M183.281 130.852V136.102H182.104V130.852H180.524V129.817H184.861V130.852H183.281Z" fill="#0B0F16"/>
<path d="M186.804 129.817H185.631V136.102H186.804V129.817Z" fill="#0B0F16"/>
<path d="M193.491 132.863C193.498 133.341 193.418 133.816 193.255 134.266C193.108 134.656 192.886 135.013 192.6 135.317C192.334 135.6 192.011 135.824 191.652 135.974C191.286 136.127 190.892 136.206 190.495 136.204C190.078 136.212 189.664 136.137 189.276 135.984C188.94 135.848 188.642 135.633 188.407 135.356C188.169 135.067 187.994 134.731 187.893 134.371C187.773 133.943 187.715 133.501 187.722 133.057C187.715 132.578 187.795 132.103 187.958 131.654C188.105 131.263 188.328 130.906 188.614 130.602C188.881 130.319 189.205 130.095 189.564 129.945C189.931 129.791 190.324 129.713 190.722 129.715C191.137 129.707 191.551 129.782 191.938 129.936C192.273 130.072 192.571 130.288 192.806 130.563C193.047 130.851 193.225 131.187 193.327 131.549C193.447 131.976 193.504 132.419 193.498 132.863M192.242 133.001C192.246 132.696 192.213 132.391 192.144 132.094C192.088 131.847 191.987 131.614 191.846 131.404C191.716 131.217 191.543 131.065 191.341 130.961C191.119 130.851 190.874 130.797 190.626 130.803C190.4 130.799 190.176 130.846 189.971 130.941C189.771 131.036 189.595 131.175 189.456 131.348C189.307 131.545 189.196 131.768 189.128 132.005C189.039 132.297 188.996 132.601 189.001 132.905C188.973 133.466 189.111 134.023 189.397 134.505C189.531 134.702 189.714 134.861 189.928 134.965C190.142 135.069 190.379 135.116 190.617 135.1C190.843 135.104 191.067 135.057 191.272 134.962C191.472 134.867 191.648 134.728 191.787 134.555C191.936 134.358 192.047 134.135 192.115 133.898C192.204 133.605 192.247 133.3 192.242 132.994" fill="#0B0F16"/>
<path d="M197.92 136.102L196.032 132.653C195.918 132.434 195.816 132.221 195.724 132.015C195.635 131.823 195.556 131.625 195.488 131.424C195.488 131.56 195.495 131.749 195.511 131.992C195.511 132.235 195.527 132.498 195.534 132.781C195.54 133.063 195.534 133.349 195.534 133.638C195.534 133.927 195.534 134.187 195.534 134.417V136.122H194.403V129.817H195.989L197.835 133.198C197.942 133.397 198.051 133.605 198.163 133.822C198.274 134.039 198.366 134.25 198.438 134.456C198.438 134.302 198.415 134.095 198.412 133.839C198.408 133.582 198.412 133.306 198.395 133.017C198.379 132.728 198.395 132.442 198.395 132.156C198.395 131.871 198.395 131.621 198.395 131.401V129.817H199.526V136.102H197.92Z" fill="#0B0F16"/>
<path d="M115.613 97.0984C115.613 97.0984 107.352 15.456 78.2748 11.2443C78.2748 11.2443 107.757 -4.95462 128.491 97.0984H115.613Z" fill="#A31C1A"/>
<path d="M115.613 97.0991H128.573C128.573 97.0991 133.351 35.2193 155.301 32.0606C155.301 32.0606 131.326 19.7494 115.613 97.0991Z" fill="#E1161C"/>
<path d="M103.383 97.0988H90.586C90.586 97.0988 79.2467 43.8854 60.699 34.976C60.618 34.976 78.2748 30.0354 103.383 97.0988Z" fill="#007C79"/>
<path d="M103.383 97.0995C103.383 97.0995 111.24 19.5068 138.859 15.5381C138.859 15.5381 110.268 0.149116 90.5859 97.0995H103.383Z" fill="#00A297"/>
<path d="M44.5 52.3904C44.5 52.3904 56.2443 51.8234 66.3687 97.0993H78.3563C78.437 97.0993 61.428 50.6895 44.5 52.3904Z" fill="#174480"/>
<path d="M66.3685 97.0986H78.3557C78.3557 97.0986 86.9411 0.0672357 124.361 0.958175C124.442 0.958175 84.1873 -15.6457 66.3685 97.0986Z" fill="#1960A9"/>
</svg>
